# xmcd
#
# Track frame offsets:
# 150
# 14960
# 31770
# 50293
# 68740
# 86728
# 104875
# 120383
# 137653
# 154823
#
# Disc length: 2309 seconds
#
#
# Revision: 2
# Processed by: cddbd v1.4PL0 Copyright (c) Steve Scherf et al.
# Submitted via: FreeRIP 2.40 
#
DISCID=8609030a
DTITLE=Various Artist - Dancehall Massive (Vol. 4)
DYEAR=1900
DGENRE=
TTITLE0=Flag Flown High - Shabba and Cocoa Tea
TTITLE1=Them Fi Know - Louie Culture
TTITLE2=Stuck On You - sanchez
TTITLE3=Dengue Fever - Beenie
TTITLE4=Strong Wuk and Devotion - Lady Saw
TTITLE5=Tell Me - Marcia Griffiths and Bounty
TTITLE6=It Hurts To Be Lonely - Pinchers
TTITLE7=Kick Up - Lt Stitchies and Donovan Steele
TTITLE8=Stacy - Garnet Silk
TTITLE9=Running Away - Sebastian
EXTD=
EXTT0=
EXTT1=
EXTT2=
EXTT3=
EXTT4=
EXTT5=
EXTT6=
EXTT7=
EXTT8=
EXTT9=
PLAYORDER=
